<svg width="2927" height="798" viewBox="0 0 2927 798" fill="none" xmlns="http://www.w3.org/2000/svg">
<path fill-rule="evenodd" clip-rule="evenodd" d="M736.641 762.127C687.556 763.645 638.881 765.312 590.641 767.125V9H736.641V762.127ZM1121.03 753.47C1071.37 754.18 1022.02 755.041 973.031 756.049V118H844.031V9H1248.03V118H1121.03V753.47ZM1745.81 752.57C1654.37 751.53 1561.88 751 1468.5 751C1439.39 751 1410.37 751.052 1381.44 751.154C1370.66 735.966 1362.12 718.915 1355.81 700C1342.48 659.333 1335.81 612.667 1335.81 560V271C1335.81 215.667 1342.48 167.667 1355.81 127C1369.15 86.3334 1392.48 55 1425.81 33.0001C1459.81 11 1506.48 0 1565.81 0C1621.81 0 1665.48 9.66668 1696.81 29C1728.81 47.6667 1751.48 74.6667 1764.81 110C1778.15 145.333 1784.81 186.333 1784.81 233V301H1642.81V231C1642.81 208.333 1641.48 187.667 1638.81 169C1636.81 150.333 1630.48 135.667 1619.81 125C1609.81 113.667 1592.15 108 1566.81 108C1541.48 108 1522.81 114 1510.81 126C1499.48 137.333 1492.15 153 1488.81 173C1485.48 192.333 1483.81 214.333 1483.81 239V591C1483.81 620.333 1486.15 644.667 1490.81 664C1495.48 682.667 1503.81 697 1515.81 707C1528.48 716.333 1545.48 721 1566.81 721C1591.48 721 1608.81 715.333 1618.81 704C1629.48 692 1636.15 676.333 1638.81 657C1641.48 637.667 1642.81 616 1642.81 592V519H1784.81V584C1784.81 632 1778.48 674.667 1765.81 712C1760.71 726.767 1754.04 740.29 1745.81 752.57ZM2026.72 757.424C1981.36 756.369 1935.69 755.439 1889.72 754.639L2038.85 9H2196.85L2348.49 767.206C2303.43 765.507 2257.99 763.936 2212.18 762.495L2189.85 632H2048.85L2026.72 757.424ZM2618.31 779.11C2569.5 776.634 2520.16 774.311 2470.31 772.145V9H2664.31C2718.98 9 2764.98 15.6667 2802.31 29C2840.31 41.6667 2868.98 63.6667 2888.31 95C2908.31 126.333 2918.31 169 2918.31 223C2918.31 255.667 2915.31 285 2909.31 311C2903.31 337 2892.98 359.333 2878.31 378C2864.31 396 2844.65 410 2819.31 420L2926.14 797.213C2876.78 793.895 2826.74 790.74 2776.06 787.753L2686.31 448H2618.31V779.11ZM385.236 775.845C252.864 782.121 124.255 789.515 0 797.946V9H199C235 9 267.333 12.3334 296 19.0001C325.333 25.6667 350.333 37 371 53C392.333 68.3334 408.667 89.3334 420 116C431.333 142.667 437 176.333 437 217C437 249.667 432.333 277.667 423 301C414.333 324.333 401.333 343 384 357C366.667 370.333 345 379.333 319 384C351 389.333 377.333 400.667 398 418C419.333 434.667 435 456.667 445 484C455.667 511.333 461 544.333 461 583C461 621.667 456 656 446 686C436.667 715.333 422.333 740 403 760C397.511 765.685 391.589 770.967 385.236 775.845ZM204 715H148V442H199C228.333 442 251.667 447 269 457C287 467 299.667 482.333 307 503C315 523 319 549.333 319 582C319 627.333 311 661 295 683C279 704.333 248.667 715 204 715ZM198 340H148V112H177C207 112 231.667 115 251 121C270.333 126.333 284.667 137 294 153C304 168.333 309 190.333 309 219C309 246.333 305.667 269 299 287C293 305 282 318.333 266 327C250 335.667 227.333 340 198 340ZM2118.85 198L2173.85 538H2063.85L2118.85 198ZM2664.31 355H2618.31V110H2672.31C2714.31 110 2742.65 120.333 2757.31 141C2772.65 161 2780.31 191.333 2780.31 232C2780.31 260.667 2776.65 284.333 2769.31 303C2761.98 321 2749.65 334.333 2732.31 343C2715.65 351 2692.98 355 2664.31 355Z" fill="#F45507"/>
</svg>
